:SAMPLES-PER-SECOND 30
:FULLY-SPECIFIED
:DEGREES
1
root  -113.6 37.8651 -1.51082 58.4105 84.5178 58.3264
RightUpLeg  -9.72515 2.34859 -4.88589
RightLeg  55.8269 16.3338 9.39737
RightFoot  17.8802 7.07469 -25.1267
RightToes  1.16414e-010 -1.59028e-015 9.93923e-017
Spine  -2.28715 1.1704 -1.25166
Spine1  15.7821 3.12206 -10.9853
HEad  -8.54526 -2.31577 4.95686
LeftShoulder1  9.93923e-017 0 1.22299e-017
LeftArm  -14.6467 35.4915 -76.6912
LeftForeArm  -6.28739 -7.37411 -4.30308
LeftHand  1.13713 8.84634 -7.1927
RightShoulder  1.98785e-016 -4.96962e-017 1.55301e-017
RightArm  25.6306 -18.2676 90.9378
RightForeArm  -42.5101 19.8486 -15.155
RightHand  1.4432 -13.0281 -4.04191
LeftUpLeg  -23.0621 -7.68106 -7.60179
LeftLeg  29.9627 0.295245 6.54341
LeftFoot  -7.47677 -0.0682283 0.899812
LeftToes  4.22918e-010 -9.72932e-012 3.81536e-011
2
root  -112.025 38.1663 -1.51244 61.7096 85.2783 61.7986
RightUpLeg  -13.8707 1.77672 -3.89504
RightLeg  55.596 14.4384 6.44938
RightFoot  13.2202 4.49718 -19.0509
RightToes  1.16414e-010 -1.59028e-015 9.93923e-017
Spine  -2.44036 0.10245 -2.45016
Spine1  15.3887 1.45277 -9.29198
HEad  -7.60402 -1.20004 4.28858
LeftShoulder1  9.93923e-017 0 1.22299e-017
LeftArm  -9.12497 30.1227 -79.0248
LeftForeArm  -12.6563 -11.2999 -3.21579
LeftHand  1.04529 7.6502 -3.85594
RightShoulder  1.98785e-016 -4.96962e-017 1.55301e-017
RightArm  15.9242 -21.662 91.2728
RightForeArm  -31.1934 17.9338 -7.16284
RightHand  1.3418 -12.6172 -3.14751
LeftUpLeg  -19.4964 -8.68327 -7.39478
LeftLeg  28.8585 0.916422 6.57082
LeftFoot  -9.48267 -0.0441243 0.433196
LeftToes  4.22918e-010 -9.72932e-012 3.81536e-011
3
root  -109.822 38.5005 -1.51902 76.5004 86.7324 76.8881
RightUpLeg  -18.8096 0.620158 -2.18876
RightLeg  53.7859 12.0522 2.57139
RightFoot  8.70662 1.26136 -6.21681
RightToes  1.16414e-010 -1.59028e-015 9.93923e-017
Spine  -1.17712 -1.37002 -3.97536
Spine1  12.629 -1.03098 -6.28532
HEad  -5.98557 0.332694 3.30241
LeftShoulder1  9.93923e-017 0 1.22299e-017
LeftArm  8.54175 24.6674 -81.7172
LeftForeArm  -32.8027 -19.4258 4.62536
LeftHand  1.05567 7.45941 0.0233503
RightShoulder  1.98785e-016 -4.96962e-017 1.55301e-017
RightArm  6.68833 -28.2933 90.5085
RightForeArm  -20.6097 15.1754 -0.503049
RightHand  1.21236 -12.0175 -2.06313
LeftUpLeg  -14.4228 -9.19127 -7.06325
LeftLeg  26.9368 0.392875 6.27646
LeftFoot  -11.8271 -0.0322782 -0.22192
LeftToes  4.22918e-010 -9.72932e-012 3.81536e-011
4
root  -107.674 38.8598 -1.52606 124.224 87.9022 124.834
RightUpLeg  -22.0333 -0.32346 -0.0909276
RightLeg  48.833 9.43183 -0.883434
RightFoot  5.855 -1.50533 8.87712
RightToes  1.16414e-010 -1.59028e-015 9.93923e-017
Spine  -0.253849 -2.66209 -4.72625
Spine1  10.5355 -3.23105 -2.40326
HEad  -4.85567 1.51985 2.3836
LeftShoulder1  9.93923e-017 0 1.22299e-017
LeftArm  23.0511 19.3816 -82.9768
LeftForeArm  -47.8827 -25.7588 15.0191
LeftHand  1.10979 7.8786 0.457615
RightShoulder  1.98785e-016 -4.96962e-017 1.55301e-017
RightArm  6.2847 -35.8184 88.4071
RightForeArm  -20.887 14.7401 0.132939
RightHand  1.25201 -12.5597 -1.67064
LeftUpLeg  -9.09475 -7.8473 -6.02983
LeftLeg  23.6307 -2.0184 5.43412
LeftFoot  -12.8742 -0.0366509 -0.219562
LeftToes  4.22918e-010 -9.72932e-012 3.81536e-011
5
root  -105.584 39.1022 -1.48046 167.833 87.7372 168.589
RightUpLeg  -23.9789 -0.899969 1.35244
RightLeg  40.2679 7.36865 -2.41257
RightFoot  3.87004 -2.13254 14.083
RightToes  1.16414e-010 -1.59028e-015 9.93923e-017
Spine  -0.0331932 -3.77393 -5.9756
Spine1  9.85061 -5.09717 1.61479
HEad  -4.47571 2.46744 1.66468
LeftShoulder1  9.93923e-017 0 1.22299e-017
LeftArm  24.2203 12.6094 -82.2004
LeftForeArm  -45.3325 -29.5396 19.0871
LeftHand  1.04114 7.42635 -1.81996
RightShoulder  1.98785e-016 -4.96962e-017 1.55301e-017
RightArm  9.22113 -42.8121 85.3812
RightForeArm  -25.4084 15.7705 -1.36029
RightHand  1.43349 -13.8539 -2.25235
LeftUpLeg  -4.09898 -5.35845 -4.67497
LeftLeg  20.4614 -5.06553 4.54578
LeftFoot  -13.8096 -0.0358708 0.572505
LeftToes  4.22918e-010 -9.72932e-012 3.81536e-011
6
root  -103.55 39.0505 -1.37038 175.565 86.6382 176.465
RightUpLeg  -25.2889 -1.23317 1.32245
RightLeg  30.0228 7.2926 -1.54956
RightFoot  3.04191 -1.59929 11.2999
RightToes  1.16414e-010 -1.59028e-015 9.93923e-017
Spine  0.391617 -4.7271 -8.36598
Spine1  9.21921 -6.66377 4.789
HEad  -4.60459 3.52379 1.37666
LeftShoulder1  9.93923e-017 0 1.22299e-017
LeftArm  22.8381 5.64754 -80.6058
LeftForeArm  -41.2893 -32.8598 20.3516
LeftHand  0.979022 6.92594 -3.05538
RightShoulder  1.98785e-016 -4.96962e-017 1.55301e-017
RightArm  10.3202 -48.7897 81.5469
RightForeArm  -26.7165 16.0869 -2.00993
RightHand  1.53927 -14.3471 -2.98186
LeftUpLeg  0.146998 -2.68243 -3.70809
LeftLeg  18.6768 -8.10664 3.84842
LeftFoot  -15.5331 -0.0292887 0.908695
LeftToes  4.22918e-010 -9.72932e-012 3.81536e-011
7
root  -101.502 38.9 -1.26098 174.951 85.5749 175.999
RightUpLeg  -25.6005 -1.36351 0.705558
RightLeg  17.4664 8.12501 -0.279464
RightFoot  4.77623 -1.6859 10.6496
RightToes  1.16414e-010 -1.59028e-015 9.93923e-017
Spine  0.650906 -5.63751 -10.3759
Spine1  9.03093 -7.99743 7.20463
HEad  -4.99034 4.79743 1.25013
LeftShoulder1  9.93923e-017 0 1.22299e-017
LeftArm  21.8312 -0.862708 -79.0073
LeftForeArm  -40.2621 -34.8224 21.3061
LeftHand  0.954236 6.77004 -1.50257
RightShoulder  1.98785e-016 -4.96962e-017 1.55301e-017
RightArm  9.47998 -53.3572 77.0148
RightForeArm  -23.6802 15.3868 -1.20063
RightHand  1.46469 -13.8632 -2.71528
LeftUpLeg  4.50554 -0.490685 -2.49205
LeftLeg  16.7221 -10.9666 2.94123
LeftFoot  -16.5983 -0.050718 -0.046883
LeftToes  4.22918e-010 -9.72932e-012 3.81536e-011
8
root  -99.4031 38.6734 -1.14602 173.739 84.752 174.919
RightUpLeg  -24.8225 0.301315 -0.962718
RightLeg  4.20175 6.6032 0.923898
RightFoot  5.80073 -1.99991 12.021
RightToes  1.16414e-010 -1.59028e-015 9.93923e-017
Spine  0.666323 -6.43389 -11.9607
Spine1  9.31881 -9.19288 9.14162
HEad  -5.221 6.10481 0.776844
LeftShoulder1  9.93923e-017 0 1.22299e-017
LeftArm  20.6182 -6.54941 -77.347
LeftForeArm  -39.1637 -35.3515 21.6173
LeftHand  0.908319 6.48376 0.418967
RightShoulder  1.98785e-016 -4.96962e-017 1.55301e-017
RightArm  10.1434 -56.4139 72.0103
RightForeArm  -20.4571 14.5757 -0.208675
RightHand  1.34597 -13.3401 -1.817
LeftUpLeg  8.82784 0.97761 -0.989201
LeftLeg  15.08 -13.3903 2.01228
LeftFoot  -16.4387 -0.0857498 -1.42793
LeftToes  4.22918e-010 -9.72932e-012 3.81536e-011
9
root  -97.2556 38.4274 -1.00988 175.982 84.5378 177.115
RightUpLeg  -24.7307 2.01842 -1.95481
RightLeg  -3.19932 3.9248 1.86579
RightFoot  4.43507 -1.69449 10.9082
RightToes  1.16414e-010 -1.59028e-015 9.93923e-017
Spine  0.546693 -7.04282 -12.5882
Spine1  9.79965 -10.1981 10.567
HEad  -5.39776 7.34336 0.0877343
LeftShoulder1  9.93923e-017 0 1.22299e-017
LeftArm  18.907 -10.4773 -75.5627
LeftForeArm  -37.6193 -35.3132 21.6881
LeftHand  0.873701 6.24396 0.413644
RightShoulder  1.98785e-016 -4.96962e-017 1.55301e-017
RightArm  11.9423 -58.0937 67.1227
RightForeArm  -18.5781 13.9462 0.52108
RightHand  1.30741 -13.2244 -1.39378
LeftUpLeg  12.6846 1.59529 0.742146
LeftLeg  14.072 -14.8342 1.45019
LeftFoot  -15.4136 -0.100327 -2.86584
LeftToes  4.22918e-010 -9.72932e-012 3.81536e-011
